<svg width="732.0" height="896.0" viewBox="0 0 732.0 896.0" xmlns="http://www.w3.org/2000/svg">
<style>/* font and background color specifications */
svg {
    font-family: SFMono-Regular,Consolas,Liberation Mono,Menlo,monospace;
    font-size: 14px;
    font-kerning: normal;
    text-rendering: optimizeLegibility;
    fill: #24292e;
}

/* default key styling */
rect {
    fill: #f6f8fa;
    stroke: #c9cccf;
    stroke-width: 1;
}

/* color accent for combo boxes */
rect.combo {
    fill: #cdf;
}

/* color accent for held keys */
rect.held, rect.combo.held {
    fill: #fdd;
}

/* color accent for ghost (optional) keys */
rect.ghost, rect.combo.ghost {
    fill: #ddd;
}

text {
    text-anchor: middle;
    dominant-baseline: middle;
}

/* styling for layer labels */
text.label {
    font-weight: bold;
    text-anchor: start;
    stroke: white;
    stroke-width: 2;
    paint-order: stroke;
}

/* styling for combo tap, and key hold/shifted label text */
text.combo, text.hold, text.shifted {
    font-size: 11px;
}

text.hold {
    text-anchor: middle;
    dominant-baseline: auto;
}

text.shifted {
    text-anchor: middle;
    dominant-baseline: hanging;
}

/* styling for hold/shifted label text in combo box */
text.combo.hold, text.combo.shifted {
    font-size: 8px;
}

/* styling for combo dendrons */
path {
    stroke-width: 1;
    stroke: gray;
    fill: none;
}
</style>
<g class="layer-default_layer">
<text x="30.0" y="28.0" class="label">default_layer:</text>
<rect rx="6.0" ry="6.0" x="32.0" y="58.0" width="52.0" height="52.0" class=""/>
<text x="58.0" y="84.0" class="tap">TAB</text>
<rect rx="6.0" ry="6.0" x="88.0" y="58.0" width="52.0" height="52.0" class=""/>
<text x="114.0" y="84.0" class="tap">Q</text>
<rect rx="6.0" ry="6.0" x="144.0" y="58.0" width="52.0" height="52.0" class=""/>
<text x="170.0" y="84.0" class="tap">W</text>
<rect rx="6.0" ry="6.0" x="200.0" y="58.0" width="52.0" height="52.0" class=""/>
<text x="226.0" y="84.0" class="tap">E</text>
<rect rx="6.0" ry="6.0" x="256.0" y="58.0" width="52.0" height="52.0" class=""/>
<text x="282.0" y="84.0" class="tap">R</text>
<rect rx="6.0" ry="6.0" x="312.0" y="58.0" width="52.0" height="52.0" class=""/>
<text x="338.0" y="84.0" class="tap">T</text>
<rect rx="6.0" ry="6.0" x="368.0" y="58.0" width="52.0" height="52.0" class=""/>
<text x="394.0" y="84.0" class="tap">Y</text>
<rect rx="6.0" ry="6.0" x="424.0" y="58.0" width="52.0" height="52.0" class=""/>
<text x="450.0" y="84.0" class="tap">U</text>
<rect rx="6.0" ry="6.0" x="480.0" y="58.0" width="52.0" height="52.0" class=""/>
<text x="506.0" y="84.0" class="tap">I</text>
<rect rx="6.0" ry="6.0" x="536.0" y="58.0" width="52.0" height="52.0" class=""/>
<text x="562.0" y="84.0" class="tap">O</text>
<rect rx="6.0" ry="6.0" x="592.0" y="58.0" width="52.0" height="52.0" class=""/>
<text x="618.0" y="84.0" class="tap">P</text>
<rect rx="6.0" ry="6.0" x="648.0" y="58.0" width="52.0" height="52.0" class=""/>
<text x="674.0" y="84.0" class="tap">BSPC</text>
<rect rx="6.0" ry="6.0" x="32.0" y="114.0" width="52.0" height="52.0" class=""/>
<text x="58.0" y="140.0" class="tap">ESC</text>
<rect rx="6.0" ry="6.0" x="88.0" y="114.0" width="52.0" height="52.0" class=""/>
<text x="114.0" y="140.0" class="tap">A</text>
<rect rx="6.0" ry="6.0" x="144.0" y="114.0" width="52.0" height="52.0" class=""/>
<text x="170.0" y="140.0" class="tap">S</text>
<rect rx="6.0" ry="6.0" x="200.0" y="114.0" width="52.0" height="52.0" class=""/>
<text x="226.0" y="140.0" class="tap">D</text>
<rect rx="6.0" ry="6.0" x="256.0" y="114.0" width="52.0" height="52.0" class=""/>
<text x="282.0" y="140.0" class="tap">F</text>
<rect rx="6.0" ry="6.0" x="312.0" y="114.0" width="52.0" height="52.0" class=""/>
<text x="338.0" y="140.0" class="tap">G</text>
<rect rx="6.0" ry="6.0" x="368.0" y="114.0" width="52.0" height="52.0" class=""/>
<text x="394.0" y="140.0" class="tap">H</text>
<rect rx="6.0" ry="6.0" x="424.0" y="114.0" width="52.0" height="52.0" class=""/>
<text x="450.0" y="140.0" class="tap">J</text>
<rect rx="6.0" ry="6.0" x="480.0" y="114.0" width="52.0" height="52.0" class=""/>
<text x="506.0" y="140.0" class="tap">K</text>
<rect rx="6.0" ry="6.0" x="536.0" y="114.0" width="52.0" height="52.0" class=""/>
<text x="562.0" y="140.0" class="tap">L</text>
<rect rx="6.0" ry="6.0" x="592.0" y="114.0" width="52.0" height="52.0" class=""/>
<text x="618.0" y="140.0" class="tap">;</text>
<rect rx="6.0" ry="6.0" x="648.0" y="114.0" width="52.0" height="52.0" class=""/>
<text x="674.0" y="140.0" class="tap">&#x27;</text>
<rect rx="6.0" ry="6.0" x="32.0" y="170.0" width="52.0" height="52.0" class=""/>
<text x="58.0" y="196.0" class="tap">LSHFT</text>
<rect rx="6.0" ry="6.0" x="88.0" y="170.0" width="52.0" height="52.0" class=""/>
<text x="114.0" y="196.0" class="tap">Z</text>
<rect rx="6.0" ry="6.0" x="144.0" y="170.0" width="52.0" height="52.0" class=""/>
<text x="170.0" y="196.0" class="tap">X</text>
<rect rx="6.0" ry="6.0" x="200.0" y="170.0" width="52.0" height="52.0" class=""/>
<text x="226.0" y="196.0" class="tap">C</text>
<rect rx="6.0" ry="6.0" x="256.0" y="170.0" width="52.0" height="52.0" class=""/>
<text x="282.0" y="196.0" class="tap">V</text>
<rect rx="6.0" ry="6.0" x="312.0" y="170.0" width="52.0" height="52.0" class=""/>
<text x="338.0" y="196.0" class="tap">B</text>
<rect rx="6.0" ry="6.0" x="368.0" y="170.0" width="52.0" height="52.0" class=""/>
<text x="394.0" y="196.0" class="tap">N</text>
<rect rx="6.0" ry="6.0" x="424.0" y="170.0" width="52.0" height="52.0" class=""/>
<text x="450.0" y="196.0" class="tap">M</text>
<rect rx="6.0" ry="6.0" x="480.0" y="170.0" width="52.0" height="52.0" class=""/>
<text x="506.0" y="196.0" class="tap">,</text>
<rect rx="6.0" ry="6.0" x="536.0" y="170.0" width="52.0" height="52.0" class=""/>
<text x="562.0" y="196.0" class="tap">.</text>
<rect rx="6.0" ry="6.0" x="592.0" y="170.0" width="52.0" height="52.0" class=""/>
<text x="618.0" y="196.0" class="tap">/</text>
<rect rx="6.0" ry="6.0" x="648.0" y="170.0" width="52.0" height="52.0" class=""/>
<text x="674.0" y="196.0" class="tap">RET</text>
<rect rx="6.0" ry="6.0" x="32.0" y="226.0" width="52.0" height="52.0" class=""/>
<rect rx="6.0" ry="6.0" x="88.0" y="226.0" width="52.0" height="52.0" class=""/>
<text x="114.0" y="252.0" class="tap">LCTL</text>
<rect rx="6.0" ry="6.0" x="144.0" y="226.0" width="52.0" height="52.0" class=""/>
<text x="170.0" y="252.0" class="tap">LALT</text>
<rect rx="6.0" ry="6.0" x="200.0" y="226.0" width="52.0" height="52.0" class=""/>
<text x="226.0" y="252.0" class="tap">LGUI</text>
<rect rx="6.0" ry="6.0" x="256.0" y="226.0" width="52.0" height="52.0" class=""/>
<text x="282.0" y="252.0" class="tap">lower</text>
<rect rx="6.0" ry="6.0" x="312.0" y="226.0" width="52.0" height="52.0" class=""/>
<rect rx="6.0" ry="6.0" x="368.0" y="226.0" width="52.0" height="52.0" class=""/>
<text x="394.0" y="252.0" class="tap">SPACE</text>
<rect rx="6.0" ry="6.0" x="424.0" y="226.0" width="52.0" height="52.0" class=""/>
<text x="450.0" y="252.0" class="tap">raise</text>
<rect rx="6.0" ry="6.0" x="480.0" y="226.0" width="52.0" height="52.0" class=""/>
<text x="506.0" y="252.0" class="tap">LEFT</text>
<rect rx="6.0" ry="6.0" x="536.0" y="226.0" width="52.0" height="52.0" class=""/>
<text x="562.0" y="252.0" class="tap">DOWN</text>
<rect rx="6.0" ry="6.0" x="592.0" y="226.0" width="52.0" height="52.0" class=""/>
<text x="618.0" y="252.0" class="tap">UP</text>
<rect rx="6.0" ry="6.0" x="648.0" y="226.0" width="52.0" height="52.0" class=""/>
<text x="674.0" y="252.0" class="tap">RIGHT</text>
</g>
<g class="layer-lower">
<text x="30.0" y="308.0" class="label">lower:</text>
<rect rx="6.0" ry="6.0" x="32.0" y="338.0" width="52.0" height="52.0" class=""/>
<text x="58.0" y="364.0" class="tap">LS(GRAVE)</text>
<rect rx="6.0" ry="6.0" x="88.0" y="338.0" width="52.0" height="52.0" class=""/>
<text x="114.0" y="364.0" class="tap">LS(1)</text>
<rect rx="6.0" ry="6.0" x="144.0" y="338.0" width="52.0" height="52.0" class=""/>
<text x="170.0" y="364.0" class="tap">LS(2)</text>
<rect rx="6.0" ry="6.0" x="200.0" y="338.0" width="52.0" height="52.0" class=""/>
<text x="226.0" y="364.0" class="tap">LS(3)</text>
<rect rx="6.0" ry="6.0" x="256.0" y="338.0" width="52.0" height="52.0" class=""/>
<text x="282.0" y="364.0" class="tap">LS(4)</text>
<rect rx="6.0" ry="6.0" x="312.0" y="338.0" width="52.0" height="52.0" class=""/>
<text x="338.0" y="364.0" class="tap">LS(5)</text>
<rect rx="6.0" ry="6.0" x="368.0" y="338.0" width="52.0" height="52.0" class=""/>
<text x="394.0" y="364.0" class="tap">LS(6)</text>
<rect rx="6.0" ry="6.0" x="424.0" y="338.0" width="52.0" height="52.0" class=""/>
<text x="450.0" y="364.0" class="tap">LS(7)</text>
<rect rx="6.0" ry="6.0" x="480.0" y="338.0" width="52.0" height="52.0" class=""/>
<text x="506.0" y="364.0" class="tap">LS(8)</text>
<rect rx="6.0" ry="6.0" x="536.0" y="338.0" width="52.0" height="52.0" class=""/>
<text x="562.0" y="364.0" class="tap">LS(9)</text>
<rect rx="6.0" ry="6.0" x="592.0" y="338.0" width="52.0" height="52.0" class=""/>
<text x="618.0" y="364.0" class="tap">LS(0)</text>
<rect rx="6.0" ry="6.0" x="648.0" y="338.0" width="52.0" height="52.0" class=""/>
<text x="674.0" y="364.0" class="tap">DEL</text>
<rect rx="6.0" ry="6.0" x="32.0" y="394.0" width="52.0" height="52.0" class=""/>
<text x="58.0" y="420.0" class="tap">DEL</text>
<rect rx="6.0" ry="6.0" x="88.0" y="394.0" width="52.0" height="52.0" class=""/>
<text x="114.0" y="420.0" class="tap">F1</text>
<rect rx="6.0" ry="6.0" x="144.0" y="394.0" width="52.0" height="52.0" class=""/>
<text x="170.0" y="420.0" class="tap">F2</text>
<rect rx="6.0" ry="6.0" x="200.0" y="394.0" width="52.0" height="52.0" class=""/>
<text x="226.0" y="420.0" class="tap">F3</text>
<rect rx="6.0" ry="6.0" x="256.0" y="394.0" width="52.0" height="52.0" class=""/>
<text x="282.0" y="420.0" class="tap">F4</text>
<rect rx="6.0" ry="6.0" x="312.0" y="394.0" width="52.0" height="52.0" class=""/>
<text x="338.0" y="420.0" class="tap">F5</text>
<rect rx="6.0" ry="6.0" x="368.0" y="394.0" width="52.0" height="52.0" class=""/>
<text x="394.0" y="420.0" class="tap">F6</text>
<rect rx="6.0" ry="6.0" x="424.0" y="394.0" width="52.0" height="52.0" class=""/>
<text x="450.0" y="420.0" class="tap">_</text>
<rect rx="6.0" ry="6.0" x="480.0" y="394.0" width="52.0" height="52.0" class=""/>
<text x="506.0" y="420.0" class="tap">+</text>
<rect rx="6.0" ry="6.0" x="536.0" y="394.0" width="52.0" height="52.0" class=""/>
<text x="562.0" y="420.0" class="tap">{</text>
<rect rx="6.0" ry="6.0" x="592.0" y="394.0" width="52.0" height="52.0" class=""/>
<text x="618.0" y="420.0" class="tap">}</text>
<rect rx="6.0" ry="6.0" x="648.0" y="394.0" width="52.0" height="52.0" class=""/>
<text x="674.0" y="420.0" class="tap">|</text>
<rect rx="6.0" ry="6.0" x="32.0" y="450.0" width="52.0" height="52.0" class=""/>
<rect rx="6.0" ry="6.0" x="88.0" y="450.0" width="52.0" height="52.0" class=""/>
<text x="114.0" y="476.0" class="tap">F7</text>
<rect rx="6.0" ry="6.0" x="144.0" y="450.0" width="52.0" height="52.0" class=""/>
<text x="170.0" y="476.0" class="tap">F8</text>
<rect rx="6.0" ry="6.0" x="200.0" y="450.0" width="52.0" height="52.0" class=""/>
<text x="226.0" y="476.0" class="tap">F9</text>
<rect rx="6.0" ry="6.0" x="256.0" y="450.0" width="52.0" height="52.0" class=""/>
<text x="282.0" y="476.0" class="tap">F10</text>
<rect rx="6.0" ry="6.0" x="312.0" y="450.0" width="52.0" height="52.0" class=""/>
<text x="338.0" y="476.0" class="tap">F11</text>
<rect rx="6.0" ry="6.0" x="368.0" y="450.0" width="52.0" height="52.0" class=""/>
<text x="394.0" y="476.0" class="tap">F12</text>
<rect rx="6.0" ry="6.0" x="424.0" y="450.0" width="52.0" height="52.0" class=""/>
<text x="450.0" y="476.0" class="tap">LS(HASH)</text>
<rect rx="6.0" ry="6.0" x="480.0" y="450.0" width="52.0" height="52.0" class=""/>
<text x="506.0" y="476.0" class="tap">LS(BSLH)</text>
<rect rx="6.0" ry="6.0" x="536.0" y="450.0" width="52.0" height="52.0" class=""/>
<text x="562.0" y="476.0" class="tap">HOME</text>
<rect rx="6.0" ry="6.0" x="592.0" y="450.0" width="52.0" height="52.0" class=""/>
<text x="618.0" y="476.0" class="tap">END</text>
<rect rx="6.0" ry="6.0" x="648.0" y="450.0" width="52.0" height="52.0" class=""/>
<rect rx="6.0" ry="6.0" x="32.0" y="506.0" width="52.0" height="52.0" class=""/>
<rect rx="6.0" ry="6.0" x="88.0" y="506.0" width="52.0" height="52.0" class=""/>
<rect rx="6.0" ry="6.0" x="144.0" y="506.0" width="52.0" height="52.0" class=""/>
<rect rx="6.0" ry="6.0" x="200.0" y="506.0" width="52.0" height="52.0" class=""/>
<rect rx="6.0" ry="6.0" x="256.0" y="506.0" width="52.0" height="52.0" class="held"/>
<rect rx="6.0" ry="6.0" x="312.0" y="506.0" width="52.0" height="52.0" class=""/>
<rect rx="6.0" ry="6.0" x="368.0" y="506.0" width="52.0" height="52.0" class=""/>
<rect rx="6.0" ry="6.0" x="424.0" y="506.0" width="52.0" height="52.0" class=""/>
<rect rx="6.0" ry="6.0" x="480.0" y="506.0" width="52.0" height="52.0" class=""/>
<text x="506.0" y="532.0" class="tap">NEXT</text>
<rect rx="6.0" ry="6.0" x="536.0" y="506.0" width="52.0" height="52.0" class=""/>
<text x="562.0" y="532.0" class="tap">
<tspan x="562.0" dy="-0.6em">VOL</tspan><tspan x="562.0" dy="1.2em">DN</tspan></text>
<rect rx="6.0" ry="6.0" x="592.0" y="506.0" width="52.0" height="52.0" class=""/>
<text x="618.0" y="532.0" class="tap">
<tspan x="618.0" dy="-0.6em">VOL</tspan><tspan x="618.0" dy="1.2em">UP</tspan></text>
<rect rx="6.0" ry="6.0" x="648.0" y="506.0" width="52.0" height="52.0" class=""/>
<text x="674.0" y="532.0" class="tap">PP</text>
</g>
<g class="layer-raise">
<text x="30.0" y="588.0" class="label">raise:</text>
<rect rx="6.0" ry="6.0" x="32.0" y="618.0" width="52.0" height="52.0" class=""/>
<text x="58.0" y="644.0" class="tap">`</text>
<rect rx="6.0" ry="6.0" x="88.0" y="618.0" width="52.0" height="52.0" class=""/>
<text x="114.0" y="644.0" class="tap">1</text>
<rect rx="6.0" ry="6.0" x="144.0" y="618.0" width="52.0" height="52.0" class=""/>
<text x="170.0" y="644.0" class="tap">2</text>
<rect rx="6.0" ry="6.0" x="200.0" y="618.0" width="52.0" height="52.0" class=""/>
<text x="226.0" y="644.0" class="tap">3</text>
<rect rx="6.0" ry="6.0" x="256.0" y="618.0" width="52.0" height="52.0" class=""/>
<text x="282.0" y="644.0" class="tap">4</text>
<rect rx="6.0" ry="6.0" x="312.0" y="618.0" width="52.0" height="52.0" class=""/>
<text x="338.0" y="644.0" class="tap">5</text>
<rect rx="6.0" ry="6.0" x="368.0" y="618.0" width="52.0" height="52.0" class=""/>
<text x="394.0" y="644.0" class="tap">6</text>
<rect rx="6.0" ry="6.0" x="424.0" y="618.0" width="52.0" height="52.0" class=""/>
<text x="450.0" y="644.0" class="tap">7</text>
<rect rx="6.0" ry="6.0" x="480.0" y="618.0" width="52.0" height="52.0" class=""/>
<text x="506.0" y="644.0" class="tap">8</text>
<rect rx="6.0" ry="6.0" x="536.0" y="618.0" width="52.0" height="52.0" class=""/>
<text x="562.0" y="644.0" class="tap">9</text>
<rect rx="6.0" ry="6.0" x="592.0" y="618.0" width="52.0" height="52.0" class=""/>
<text x="618.0" y="644.0" class="tap">0</text>
<rect rx="6.0" ry="6.0" x="648.0" y="618.0" width="52.0" height="52.0" class=""/>
<text x="674.0" y="644.0" class="tap">BSPC</text>
<rect rx="6.0" ry="6.0" x="32.0" y="674.0" width="52.0" height="52.0" class=""/>
<text x="58.0" y="700.0" class="tap">DEL</text>
<rect rx="6.0" ry="6.0" x="88.0" y="674.0" width="52.0" height="52.0" class=""/>
<text x="114.0" y="700.0" class="tap">F1</text>
<rect rx="6.0" ry="6.0" x="144.0" y="674.0" width="52.0" height="52.0" class=""/>
<text x="170.0" y="700.0" class="tap">F2</text>
<rect rx="6.0" ry="6.0" x="200.0" y="674.0" width="52.0" height="52.0" class=""/>
<text x="226.0" y="700.0" class="tap">F3</text>
<rect rx="6.0" ry="6.0" x="256.0" y="674.0" width="52.0" height="52.0" class=""/>
<text x="282.0" y="700.0" class="tap">F4</text>
<rect rx="6.0" ry="6.0" x="312.0" y="674.0" width="52.0" height="52.0" class=""/>
<text x="338.0" y="700.0" class="tap">F5</text>
<rect rx="6.0" ry="6.0" x="368.0" y="674.0" width="52.0" height="52.0" class=""/>
<text x="394.0" y="700.0" class="tap">F6</text>
<rect rx="6.0" ry="6.0" x="424.0" y="674.0" width="52.0" height="52.0" class=""/>
<text x="450.0" y="700.0" class="tap">-</text>
<rect rx="6.0" ry="6.0" x="480.0" y="674.0" width="52.0" height="52.0" class=""/>
<text x="506.0" y="700.0" class="tap">=</text>
<rect rx="6.0" ry="6.0" x="536.0" y="674.0" width="52.0" height="52.0" class=""/>
<text x="562.0" y="700.0" class="tap">[</text>
<rect rx="6.0" ry="6.0" x="592.0" y="674.0" width="52.0" height="52.0" class=""/>
<text x="618.0" y="700.0" class="tap">]</text>
<rect rx="6.0" ry="6.0" x="648.0" y="674.0" width="52.0" height="52.0" class=""/>
<text x="674.0" y="700.0" class="tap">\</text>
<rect rx="6.0" ry="6.0" x="32.0" y="730.0" width="52.0" height="52.0" class=""/>
<rect rx="6.0" ry="6.0" x="88.0" y="730.0" width="52.0" height="52.0" class=""/>
<text x="114.0" y="756.0" class="tap">F7</text>
<rect rx="6.0" ry="6.0" x="144.0" y="730.0" width="52.0" height="52.0" class=""/>
<text x="170.0" y="756.0" class="tap">F8</text>
<rect rx="6.0" ry="6.0" x="200.0" y="730.0" width="52.0" height="52.0" class=""/>
<text x="226.0" y="756.0" class="tap">F9</text>
<rect rx="6.0" ry="6.0" x="256.0" y="730.0" width="52.0" height="52.0" class=""/>
<text x="282.0" y="756.0" class="tap">F10</text>
<rect rx="6.0" ry="6.0" x="312.0" y="730.0" width="52.0" height="52.0" class=""/>
<text x="338.0" y="756.0" class="tap">F11</text>
<rect rx="6.0" ry="6.0" x="368.0" y="730.0" width="52.0" height="52.0" class=""/>
<text x="394.0" y="756.0" class="tap">F12</text>
<rect rx="6.0" ry="6.0" x="424.0" y="730.0" width="52.0" height="52.0" class=""/>
<text x="450.0" y="756.0" class="tap">#</text>
<rect rx="6.0" ry="6.0" x="480.0" y="730.0" width="52.0" height="52.0" class=""/>
<text x="506.0" y="756.0" class="tap">\</text>
<rect rx="6.0" ry="6.0" x="536.0" y="730.0" width="52.0" height="52.0" class=""/>
<text x="562.0" y="756.0" class="tap">
<tspan x="562.0" dy="-0.6em">PG</tspan><tspan x="562.0" dy="1.2em">UP</tspan></text>
<rect rx="6.0" ry="6.0" x="592.0" y="730.0" width="52.0" height="52.0" class=""/>
<text x="618.0" y="756.0" class="tap">
<tspan x="618.0" dy="-0.6em">PG</tspan><tspan x="618.0" dy="1.2em">DN</tspan></text>
<rect rx="6.0" ry="6.0" x="648.0" y="730.0" width="52.0" height="52.0" class=""/>
<rect rx="6.0" ry="6.0" x="32.0" y="786.0" width="52.0" height="52.0" class=""/>
<text x="58.0" y="812.0" class="tap">&amp;sys_reset</text>
<rect rx="6.0" ry="6.0" x="88.0" y="786.0" width="52.0" height="52.0" class=""/>
<text x="114.0" y="812.0" class="tap">&amp;bootloader</text>
<rect rx="6.0" ry="6.0" x="144.0" y="786.0" width="52.0" height="52.0" class=""/>
<rect rx="6.0" ry="6.0" x="200.0" y="786.0" width="52.0" height="52.0" class=""/>
<rect rx="6.0" ry="6.0" x="256.0" y="786.0" width="52.0" height="52.0" class=""/>
<rect rx="6.0" ry="6.0" x="312.0" y="786.0" width="52.0" height="52.0" class=""/>
<rect rx="6.0" ry="6.0" x="368.0" y="786.0" width="52.0" height="52.0" class=""/>
<rect rx="6.0" ry="6.0" x="424.0" y="786.0" width="52.0" height="52.0" class="held"/>
<rect rx="6.0" ry="6.0" x="480.0" y="786.0" width="52.0" height="52.0" class=""/>
<text x="506.0" y="812.0" class="tap">NEXT</text>
<rect rx="6.0" ry="6.0" x="536.0" y="786.0" width="52.0" height="52.0" class=""/>
<text x="562.0" y="812.0" class="tap">
<tspan x="562.0" dy="-0.6em">VOL</tspan><tspan x="562.0" dy="1.2em">DN</tspan></text>
<rect rx="6.0" ry="6.0" x="592.0" y="786.0" width="52.0" height="52.0" class=""/>
<text x="618.0" y="812.0" class="tap">
<tspan x="618.0" dy="-0.6em">VOL</tspan><tspan x="618.0" dy="1.2em">UP</tspan></text>
<rect rx="6.0" ry="6.0" x="648.0" y="786.0" width="52.0" height="52.0" class=""/>
<text x="674.0" y="812.0" class="tap">PP</text>
</g>
</svg>
